# File created by Blade
# Date/Time:  Tue Jan 27 19:54:25 2015
# Frame Rate: 120.000 fps
#------------------------------------------------------
:FULLY-SPECIFIED
:DEGREES
2883
root 6.195827 34.019138 -0.884236 34.380795 -48.406531 -44.106885
Spine 3.560297 29.567509 11.006124
Head -1.702751 11.027325 5.851062
LeftShoulder -18.032593 0.453153 30.695881
LeftArm -20.037999 -46.782532 -64.345833
LeftForeArm -60.406762 -0.000000 138.578987
LeftHand 2.908515 -0.000000 -37.224400
LeftHandThumb1 -26.253704 0.000000 33.147579
RightShoulder -12.138272 -3.020823 -24.833174
RightArm 25.111342 -16.953964 75.675996
RightForeArm -22.299399 -0.000000 42.183169
RightHand 17.030674 0.000000 7.070760
RightHandThumb1 -24.326973 -0.000000 -32.862282
LeftUpLeg 5.863790 19.606566 17.464205
LeftLeg -4.626633 -0.000000 0.000000
LeftFoot -21.286980 30.161153 -18.214731
LeftToeBase 21.703479 -0.000000 -0.000000
RightUpLeg -46.937369 -55.147878 -25.553723
RightLeg 115.078485 -0.000000 -0.000000
RightFoot 26.321064 -26.649863 22.460322
RightToeBase 10.919600 -0.000000 -0.000000
2884
root 6.161958 34.028801 -0.864144 34.446227 -48.233126 -44.228089
Spine 3.595960 29.539657 11.161535
Head -1.815946 10.970377 5.937001
LeftShoulder -18.023309 0.421198 30.711216
LeftArm -20.221602 -46.852994 -64.139982
LeftForeArm -60.378451 0.000000 138.532859
LeftHand 2.985095 -0.000000 -37.258342
LeftHandThumb1 -26.253704 0.000000 33.147579
RightShoulder -12.238679 -3.096131 -24.569073
RightArm 25.337312 -17.533685 75.872033
RightForeArm -22.434088 -0.000000 42.239426
RightHand 16.958891 -0.000000 7.082246
RightHandThumb1 -24.326973 -0.000000 -32.862282
LeftUpLeg 5.962911 19.734742 17.657942
LeftLeg -4.734311 -0.000000 0.000000
LeftFoot -21.028894 30.128394 -17.833132
LeftToeBase 21.421439 -0.000000 -0.000000
RightUpLeg -46.230698 -55.615535 -26.098353
RightLeg 115.168721 -0.000000 -0.000000
RightFoot 26.194415 -26.875719 22.675744
RightToeBase 11.314344 -0.000000 -0.000000
2885
root 6.128682 34.038888 -0.846797 34.482657 -48.015971 -44.310705
Spine 3.625002 29.446930 11.305214
Head -1.921293 10.924430 6.058127
LeftShoulder -18.063967 0.365214 30.732720
LeftArm -20.386016 -46.845234 -63.921901
LeftForeArm -60.226584 -0.000000 138.489731
LeftHand 2.990755 -0.000000 -37.586430
LeftHandThumb1 -26.253704 0.000000 33.147579
RightShoulder -12.303930 -3.104261 -24.317677
RightArm 25.485694 -18.111933 76.099750
RightForeArm -22.706753 0.000000 42.296139
RightHand 17.029413 -0.000000 7.089885
RightHandThumb1 -24.326973 -0.000000 -32.862282
LeftUpLeg 6.010243 19.756206 17.848334
LeftLeg -4.799133 -0.000000 0.000000
LeftFoot -20.984089 30.071480 -17.746263
LeftToeBase 21.418364 -0.000000 -0.000000
RightUpLeg -45.478044 -56.099243 -26.682348
RightLeg 115.279831 -0.000000 -0.000000
RightFoot 26.057049 -27.023933 22.813048
RightToeBase 10.493599 -0.000000 -0.000000
2886
root 6.093323 34.048783 -0.828023 34.517939 -47.805174 -44.390441
Spine 3.624377 29.379100 11.422653
Head -2.022360 10.853331 6.225145
LeftShoulder -18.089610 0.428553 30.753735
LeftArm -20.390176 -46.901884 -63.830850
LeftForeArm -60.229891 -0.000000 138.413675
LeftHand 3.007374 -0.000000 -37.446879
LeftHandThumb1 -26.253704 0.000000 33.147579
RightShoulder -12.388698 -3.092079 -24.056622
RightArm 25.633820 -18.750126 76.287882
RightForeArm -22.785574 -0.000000 42.253787
RightHand 17.019257 -0.000000 7.532207
RightHandThumb1 -24.326973 -0.000000 -32.862282
LeftUpLeg 6.067097 19.815306 18.039815
LeftLeg -4.867273 -0.000000 0.000000
LeftFoot -21.021228 29.961601 -17.772684
LeftToeBase 21.571603 -0.000000 -0.000000
RightUpLeg -44.708715 -56.577583 -27.266416
RightLeg 115.355137 -0.000000 -0.000000
RightFoot 25.895583 -27.301240 22.982809
RightToeBase 11.454240 -0.000000 -0.000000
2887
root 6.060952 34.057933 -0.810537 34.598655 -47.619458 -44.483973
Spine 3.574124 29.343491 11.496690
Head -2.116616 10.758322 6.451625
LeftShoulder -18.094875 0.415884 30.828103
LeftArm -20.598030 -46.974955 -63.587584
LeftForeArm -60.147163 -0.000000 138.367697
LeftHand 3.062545 -0.000000 -37.433217
LeftHandThumb1 -26.253704 0.000000 33.147579
RightShoulder -12.426354 -3.044452 -23.816424
RightArm 25.696019 -19.322083 76.573985
RightForeArm -22.929967 -0.000000 42.184859
RightHand 16.982859 -0.000000 7.616663
RightHandThumb1 -24.326973 -0.000000 -32.862282
LeftUpLeg 6.089238 19.856609 18.202612
LeftLeg -4.929392 -0.000000 0.000000
LeftFoot -20.781283 30.013275 -17.385320
LeftToeBase 21.274508 -0.000000 -0.000000
RightUpLeg -44.051107 -56.993159 -27.766987
RightLeg 115.458760 -0.000000 -0.000000
RightFoot 25.701986 -27.490020 23.174707
RightToeBase 11.207874 -0.000000 -0.000000
2888
root 6.025308 34.068147 -0.792030 34.674737 -47.415353 -44.579025
Spine 3.376289 29.164202 11.509452
Head -1.845245 10.768946 6.890090
LeftShoulder -18.051107 0.591309 30.978304
LeftArm -20.885232 -47.182446 -63.367919
LeftForeArm -59.929502 -0.000000 138.405321
LeftHand 2.979839 -0.000000 -37.208246
LeftHandThumb1 -26.253704 0.000000 33.147579
RightShoulder -12.125406 -2.913934 -23.553531
RightArm 25.539597 -19.719848 76.914856
RightForeArm -23.008306 -0.000000 42.125548
RightHand 16.881390 -0.000000 7.866530
RightHandThumb1 -24.326973 -0.000000 -32.862282
LeftUpLeg 6.130344 19.873495 18.386876
LeftLeg -5.020673 -0.000000 0.000000
LeftFoot -20.618685 30.030712 -17.121173
LeftToeBase 21.027145 -0.000000 -0.000000
RightUpLeg -43.316155 -57.385587 -28.318444
RightLeg 115.536097 -0.000000 -0.000000
RightFoot 25.670508 -27.464198 23.166699
RightToeBase 11.267737 -0.000000 -0.000000
2889
root 5.987614 34.078881 -0.773137 34.727600 -47.204625 -44.694418
Spine 3.349418 29.089203 11.611820
Head -1.913519 10.734929 7.159778
LeftShoulder -18.098125 0.653914 31.058655
LeftArm -21.010192 -47.347693 -63.204388
LeftForeArm -59.819023 -0.000000 138.366699
LeftHand 2.991162 0.000000 -37.167939
LeftHandThumb1 -26.253704 0.000000 33.147579
RightShoulder -12.059719 -3.035179 -23.312409
RightArm 25.715641 -20.189753 77.194071
RightForeArm -22.899938 -0.000000 41.935919
RightHand 17.052261 -0.000000 7.629220
RightHandThumb1 -24.326973 -0.000000 -32.862282
LeftUpLeg 6.223988 19.885764 18.605195
LeftLeg -5.132802 -0.000000 0.000000
LeftFoot -20.449396 30.016508 -16.886668
LeftToeBase 21.088966 -0.000000 -0.000000
RightUpLeg -42.543253 -57.756705 -28.866260
RightLeg 115.576551 -0.000000 -0.000000
RightFoot 25.729636 -27.574567 23.069399
RightToeBase 10.546268 -0.000000 -0.000000
2890
root 5.952698 34.090548 -0.756643 34.792552 -47.004210 -44.843520
Spine 3.408060 29.105122 11.778666
Head -2.095975 10.640355 7.340743
LeftShoulder -18.124962 0.593521 31.096901
LeftArm -21.193633 -47.499086 -62.975140
LeftForeArm -59.654651 -0.000000 138.280971
LeftHand 3.047464 -0.000000 -37.616354
LeftHandThumb1 -26.253704 0.000000 33.147579
RightShoulder -12.061460 -2.953321 -23.167725
RightArm 25.612185 -20.660923 77.576862
RightForeArm -22.933206 -0.000000 41.847458
RightHand 17.165992 0.000000 7.831398
RightHandThumb1 -24.326973 -0.000000 -32.862282
LeftUpLeg 6.339244 19.911282 18.842130
LeftLeg -5.251324 -0.000000 0.000000
LeftFoot -20.288651 30.008508 -16.648163
LeftToeBase 20.918392 -0.000000 -0.000000
RightUpLeg -41.741762 -58.006958 -29.417703
RightLeg 115.623516 -0.000000 -0.000000
RightFoot 25.731923 -27.484599 23.145617
RightToeBase 10.669504 -0.000000 -0.000000
2891
root 5.912507 34.104948 -0.739772 34.854049 -46.759694 -45.033755
Spine 3.475644 29.088366 12.017696
Head -2.237939 10.531680 7.482759
LeftShoulder -18.082318 0.582902 31.103147
LeftArm -21.442519 -47.709597 -62.693643
LeftForeArm -59.787230 -0.000000 138.190367
LeftHand 3.079667 -0.000000 -37.659114
LeftHandThumb1 -26.253704 0.000000 33.147579
RightShoulder -12.026390 -2.935885 -23.043048
RightArm 25.588924 -21.197304 77.893882
RightForeArm -22.843337 -0.000000 41.678336
RightHand 17.139572 -0.000000 7.622825
RightHandThumb1 -24.326973 -0.000000 -32.862282
LeftUpLeg 6.504287 19.923522 19.159829
LeftLeg -5.391611 -0.000000 0.000000
LeftFoot -20.266107 29.903950 -16.639108
LeftToeBase 20.969494 -0.000000 -0.000000
RightUpLeg -40.858599 -58.258569 -29.975922
RightLeg 115.628327 -0.000000 -0.000000
RightFoot 25.717605 -27.644078 23.424134
RightToeBase 11.114585 -0.000000 -0.000000
2892
root 5.866204 34.113376 -0.711266 35.054571 -46.687932 -45.345391
Spine 3.436343 29.258747 12.184213
Head -2.269793 10.422762 7.704573
LeftShoulder -18.066615 0.695839 31.125084
LeftArm -21.560261 -47.880436 -62.507589
LeftForeArm -60.044224 -0.000000 138.089316
LeftHand 3.076340 -0.000000 -37.541748
LeftHandThumb1 -26.253704 0.000000 33.147579
RightShoulder -11.992705 -2.936861 -22.905282
RightArm 25.475558 -21.712223 78.239753
RightForeArm -22.900969 -0.000000 41.564219
RightHand 17.328373 0.000000 7.769606
RightHandThumb1 -24.326973 -0.000000 -32.862282
LeftUpLeg 6.814457 20.207091 19.458795
LeftLeg -5.684242 -0.000000 0.000000
LeftFoot -19.998289 29.778518 -16.333278
LeftToeBase 20.702453 -0.000000 -0.000000
RightUpLeg -40.251538 -58.349774 -30.340700
RightLeg 115.637350 -0.000000 -0.000000
RightFoot 25.794245 -27.522287 23.111491
RightToeBase 10.925498 -0.000000 -0.000000
2893
root 5.824203 34.126168 -0.691986 35.080543 -46.502514 -45.519745
Spine 3.538440 29.283523 12.367999
Head -2.432719 10.333991 7.891633
LeftShoulder -18.119563 0.623900 31.158051
LeftArm -21.700687 -47.993603 -62.332198
LeftForeArm -60.095702 -0.000000 138.013534
LeftHand 3.174305 -0.000000 -37.491446
LeftHandThumb1 -26.253704 0.000000 33.147579
RightShoulder -11.969559 -2.951906 -22.763273
RightArm 25.485069 -22.246702 78.483048
RightForeArm -22.736852 -0.000000 41.436765
RightHand 17.287009 -0.000000 7.798277
RightHandThumb1 -24.326973 -0.000000 -32.862282
LeftUpLeg 7.068080 20.294150 19.756910
LeftLeg -5.902648 -0.000000 0.000000
LeftFoot -19.930130 29.631688 -16.349542
LeftToeBase 20.845341 -0.000000 -0.000000
RightUpLeg -39.364457 -58.480452 -30.949651
RightLeg 115.626488 -0.000000 -0.000000
RightFoot 25.784064 -27.631472 23.281148
RightToeBase 10.990745 -0.000000 -0.000000
